<svg width="128" height="28" viewBox="0 0 128 28" fill="none" xmlns="http://www.w3.org/2000/svg">
<g clip-path="url(#clip0)">
<path d="M9.19156 26.9668C7.95435 26.4964 6.79298 25.8604 5.74212 25.0777C4.10639 23.8815 2.75335 22.3674 1.77186 20.6347C0.789445 18.9007 0.201164 16.9872 0.045713 15.0199C-0.109085 13.0537 0.172175 11.0785 0.87098 9.22387C1.57009 7.36856 2.67162 5.6763 4.10298 4.25843C5.53389 2.84082 7.26202 1.7296 9.17358 0.998106C11.0853 0.2662 13.1373 -0.0692276 15.1942 0.0137736C17.2513 0.0959106 19.2668 0.594663 21.1081 1.47723C22.9492 2.35953 24.5745 3.6052 25.8771 5.13233C26.7579 6.136 27.4837 7.25561 28.0324 8.45688C28.8313 10.2087 29.2423 12.1002 29.2396 14.0119C29.2365 17.7176 27.7 21.2709 24.9668 23.8931C22.235 26.5148 18.5297 27.992 14.663 28.001C12.7863 28.0009 10.9277 27.6496 9.19156 26.9668ZM23.115 12.1835C22.3748 12.256 21.6834 12.5707 21.1572 13.0746C20.6307 13.5784 20.3021 14.2409 20.227 14.9501C20.0352 16.2146 19.4213 17.3857 18.4773 18.2883C17.5333 19.191 16.3095 19.7766 14.9891 19.9573C14.249 20.0299 13.5576 20.3447 13.0314 20.8485C12.5051 21.3524 12.1766 22.0148 12.1012 22.724C12.0046 23.4471 11.7707 24.1472 11.4111 24.7897C12.4623 25.0783 13.5506 25.2243 14.6441 25.2235V25.171C16.4252 25.1647 18.1811 24.7675 19.7771 24.01C21.3727 23.2528 22.7659 22.1551 23.8494 20.8014C24.9336 19.4478 25.6799 17.8744 26.0312 16.2018C26.382 14.5291 26.3283 12.8017 25.8743 11.152C25.0556 11.706 24.108 12.0601 23.114 12.1835H23.115ZM18.8904 6.95893C18.1466 7.00742 17.4462 7.31205 16.9185 7.81658C16.3615 8.33963 16.0273 9.04228 15.9807 9.78812C15.7896 11.0511 15.1775 12.221 14.2357 13.1235C13.2938 14.0265 12.072 14.6129 10.7532 14.7952C10.0118 14.8538 9.31832 15.1698 8.80303 15.6837C8.26706 16.1829 7.93455 16.8489 7.86528 17.562C7.69333 18.8305 7.07791 20.0059 6.11932 20.8965C5.98981 21.0205 5.85935 21.1237 5.73174 21.237C6.56681 22.1735 7.55681 22.9723 8.66219 23.6015C8.95161 23.1762 9.13261 22.6917 9.19061 22.187C9.38802 20.9216 10.0063 19.7508 10.9536 18.8489C11.9015 17.9463 13.1282 17.3609 14.4512 17.1798C15.1932 17.1095 15.887 16.796 16.4156 16.2923C16.9439 15.7878 17.2741 15.1239 17.3505 14.4131C17.5372 13.1487 18.148 11.9768 19.0908 11.0741C20.0335 10.1714 21.2565 9.58595 22.5761 9.40595C23.319 9.33967 24.0118 9.01797 24.5263 8.50033C24.5783 8.45705 24.6252 8.40843 24.6662 8.3554C23.9994 7.26425 23.1389 6.29308 22.1233 5.48553C21.2308 6.28534 20.1012 6.80011 18.8904 6.95893ZM9.03935 4.20857C7.31913 5.11518 5.86596 6.42351 4.81479 8.01214C3.76467 9.60133 3.15106 11.4192 3.03101 13.2965C2.90973 15.1739 3.28664 17.05 4.12661 18.7501C4.61302 18.2599 4.91274 17.6269 4.97738 16.9534C5.16736 15.69 5.77924 14.5196 6.72147 13.6171C7.66382 12.7147 8.88536 12.1283 10.204 11.9453C10.9448 11.8809 11.6399 11.5739 12.1721 11.0759C12.704 10.5775 13.0402 9.91853 13.124 9.21027C13.3149 7.94697 13.927 6.77668 14.869 5.874C15.8111 4.97171 17.0323 4.38534 18.3506 4.20227C18.7513 4.14442 19.1425 4.03694 19.5143 3.88256C17.9889 3.20219 16.3267 2.8498 14.6441 2.85014L14.6554 2.83024H14.645C12.6851 2.83 10.7569 3.3041 9.03935 4.20857ZM52.8902 21.0304V21.0196H55.9936C56.1413 21.3341 56.391 21.5944 56.7054 21.7622C57.0199 21.9293 57.3822 21.9948 57.7386 21.9488C58.9675 21.9488 59.6151 21.3094 59.6151 20.3802V18.646H59.5499C59.2922 19.1774 58.8744 19.6228 58.3503 19.9247C57.8256 20.2262 57.2189 20.3703 56.6081 20.3386C54.2448 20.3386 52.685 18.6179 52.685 15.652C52.685 12.6861 54.1729 10.8205 56.6553 10.8205C57.2851 10.7971 57.9074 10.9582 58.4391 11.2824C58.971 11.6085 59.3863 12.0824 59.6292 12.6408V10.9201H62.8622V20.3141C62.8622 22.5781 60.7825 23.9792 57.7112 23.9792C54.8517 23.9738 53.0736 22.7449 52.8902 21.0314V21.0304ZM55.9152 15.6719C55.9152 17.1897 56.6052 18.0465 57.7585 18.0465C58.9118 18.0465 59.6226 17.2106 59.6226 15.6828V15.6719C59.6226 14.1649 58.9004 13.214 57.7585 13.214C56.6166 13.214 55.918 14.155 55.918 15.6728L55.9152 15.6719ZM80.1622 23.4457V10.9128H83.3951V12.6055H83.4604C83.7028 12.043 84.1204 11.5658 84.6562 11.2389C85.1914 10.9125 85.8184 10.7516 86.4523 10.778C88.9309 10.8196 90.4074 12.5947 90.4074 15.6919L90.364 15.671C90.364 18.7682 88.9309 20.5333 86.4731 20.5333C85.8433 20.5724 85.2162 20.4247 84.677 20.1103C84.1373 19.7966 83.7112 19.3316 83.4566 18.7782H83.3914V23.444L80.1622 23.4457ZM83.4169 15.6719C83.4056 17.1689 84.1495 18.1297 85.2811 18.1297C86.4126 18.1297 87.1348 17.1898 87.1348 15.6928V15.6719C87.1348 14.1649 86.4126 13.205 85.2811 13.205C84.1495 13.205 83.4301 14.1758 83.4197 15.6728L83.4169 15.6719ZM41.5815 15.6828C41.5815 12.5856 43.5666 10.7372 46.6247 10.7372C49.6828 10.7372 51.6688 12.5856 51.6688 15.6828C51.6688 18.7801 49.7291 20.6383 46.6247 20.6383C43.5203 20.6383 41.5843 18.8317 41.5843 15.6837L41.5815 15.6828ZM44.8362 15.6828C44.8362 17.3555 45.5149 18.3671 46.6247 18.3671C47.7345 18.3671 48.4208 17.4171 48.4208 15.6928V15.6828C48.4208 13.9794 47.7194 12.9777 46.6247 12.9777C45.53 12.9777 44.84 14.011 44.84 15.6837L44.8362 15.6828ZM64.0722 15.6828V15.6719C64.0722 12.5747 66.0573 10.7272 69.1154 10.7272C72.1734 10.7272 74.1699 12.5747 74.1699 15.6719C74.1699 18.7691 72.2302 20.6275 69.1154 20.6275C66.0006 20.6275 64.076 18.8317 64.076 15.6837L64.0722 15.6828ZM67.3808 15.6928C67.3808 17.3754 68.0595 18.3779 69.1589 18.3779C70.2582 18.3779 70.9152 17.418 70.9152 15.6928V15.6719C70.9152 13.9684 70.2148 12.9669 69.1192 12.9669C68.0236 12.9669 67.3845 14.011 67.3845 15.6937L67.3808 15.6928ZM91.2497 17.427H94.3635C94.4581 18.1297 95.0432 18.5419 95.9923 18.5419C96.9414 18.5419 97.3715 18.243 97.3715 17.7467C97.3715 17.2504 97.069 17.148 96.2939 16.9932L94.4297 16.612C92.5003 16.2298 91.4879 15.2535 91.4879 13.8045C91.5097 11.9462 93.2452 10.7381 95.9167 10.7381V10.7182C98.6004 10.7182 100.227 11.9362 100.302 13.8878H97.3611C97.3611 13.2159 96.7778 12.793 95.8845 12.793C94.9912 12.793 94.5914 13.1235 94.5914 13.608C94.5914 14.0926 94.9468 14.2483 95.669 14.3923L97.7383 14.7952C99.7102 15.1982 100.551 15.9626 100.551 17.3971C100.551 19.3587 98.6855 20.6184 95.9375 20.6184C93.1895 20.6184 91.3943 19.3587 91.2535 17.4252L91.2497 17.427ZM103.852 20.3784C103.393 20.2075 102.978 19.9444 102.635 19.6069C102.291 19.2697 102.027 18.8652 101.862 18.4214C101.695 17.9776 101.631 17.5047 101.673 17.0349V10.9128H104.906V16.3221C104.906 17.4478 105.509 18.0428 106.513 18.0428C106.748 18.0436 106.98 17.996 107.194 17.9033C107.409 17.8107 107.6 17.6752 107.755 17.5058C107.91 17.3368 108.026 17.1379 108.094 16.9225C108.162 16.707 108.181 16.4801 108.151 16.2569V10.9138H111.384L111.339 20.3911H108.225V18.6261H108.161C107.99 19.2189 107.612 19.7377 107.09 20.0967C106.569 20.4556 105.935 20.6327 105.294 20.5985C105.231 20.6022 105.166 20.6039 105.099 20.6039C104.674 20.6035 104.252 20.5273 103.855 20.3793L103.852 20.3784ZM124.755 20.411V14.7844C124.755 13.752 124.27 13.2765 123.365 13.2765C123.163 13.2749 122.963 13.3151 122.778 13.3942C122.594 13.4729 122.429 13.5884 122.295 13.733C122.162 13.878 122.062 14.0487 122.002 14.2338C121.944 14.4187 121.927 14.6136 121.953 14.8053V20.411H118.881V14.7427C118.881 13.7936 118.397 13.2765 117.513 13.2765C117.309 13.2766 117.107 13.3182 116.921 13.3988C116.735 13.4788 116.568 13.5961 116.433 13.7429C116.298 13.8894 116.196 14.0612 116.135 14.2474C116.074 14.4341 116.056 14.631 116.08 14.8252V20.411H112.847L112.901 10.9128H116.027V12.7405H116.091C116.263 12.1555 116.632 11.6415 117.141 11.2788C117.65 10.916 118.27 10.7249 118.905 10.7354C119.55 10.686 120.191 10.8709 120.701 11.2534C121.21 11.6357 121.551 12.188 121.654 12.8001H121.718C121.913 12.1816 122.319 11.6432 122.869 11.2697C123.42 10.8951 124.085 10.7071 124.76 10.7354C125.199 10.7218 125.637 10.7964 126.044 10.9545C126.452 11.1135 126.82 11.3523 127.125 11.6555C127.43 11.9596 127.664 12.3215 127.814 12.7178C127.963 13.1144 128.024 13.5364 127.993 13.9567V20.4093L124.755 20.411ZM75.3979 20.411V10.9337H78.6308V20.411H75.3979ZM37.0667 20.411V7.8881H40.2996V20.411H37.0667ZM76.4415 10.1159C76.2375 10.0457 76.0506 9.93627 75.8923 9.79442C75.7349 9.65152 75.6097 9.47927 75.5246 9.28821C75.4393 9.09709 75.3965 8.89111 75.3988 8.68328V8.66239C75.3905 8.34987 75.479 8.04205 75.6531 7.77766C75.828 7.51392 76.0803 7.30541 76.3782 7.17815C76.677 7.05179 77.0083 7.01299 77.3301 7.06672C77.6516 7.12073 77.9493 7.26477 78.1856 7.48062C78.4227 7.69616 78.5873 7.97454 78.6582 8.28022C78.7291 8.58566 78.7035 8.90439 78.5845 9.19579C78.4672 9.48821 78.2615 9.74051 77.9937 9.92033C77.726 10.0993 77.4088 10.1983 77.0824 10.2047H76.9756C76.7949 10.2047 76.6155 10.1751 76.4453 10.1169L76.4415 10.1159Z" fill="#394149"/>
</g>
<defs>
<clipPath id="clip0">
<rect width="128" height="28" fill="white"/>
</clipPath>
</defs>
</svg>
