<svg width="128" height="28" viewBox="0 0 128 28" fill="none" xmlns="http://www.w3.org/2000/svg">
<g clip-path="url(#clip0)">
<path d="M0 27.999V3.03222H12.6061C13.9651 1.64246 15.7396 0.670201 17.6974 0.24271C19.6555 -0.184424 21.7055 -0.0470663 23.5791 0.636818C25.4522 1.32127 27.0615 2.52039 28.1964 4.07732C29.3311 5.63494 29.9383 7.47775 29.9384 9.36453C29.937 10.6796 29.6405 11.9796 29.0682 13.1801C28.4951 14.3804 27.6592 15.4541 26.6147 16.3313V27.999H0ZM5.12145 23.1933H21.495V18.6153C20.9843 18.6952 20.4675 18.7364 19.9498 18.7384C17.3009 18.7361 14.7613 17.7475 12.8887 15.9896C11.0153 14.2324 9.96177 11.8493 9.95938 9.36372C9.96357 8.85176 10.0143 8.34111 10.1109 7.83723H5.12145V23.1933ZM17.2437 5.5756C16.4429 6.07822 15.8188 6.79232 15.4503 7.62764C15.0827 8.46305 14.9871 9.38199 15.1756 10.2684C15.3642 11.1548 15.8289 11.9688 16.5109 12.6072C17.1931 13.2452 18.0613 13.6792 19.0061 13.8544C19.951 14.0296 20.93 13.9379 21.8193 13.5908C22.7089 13.2431 23.4687 12.6557 24.0026 11.9029C24.5363 11.1503 24.8203 10.2661 24.8187 9.3621C24.8153 8.15209 24.3011 6.9926 23.3886 6.13768C22.4755 5.28302 21.2386 4.80288 19.9489 4.8024C18.9854 4.80384 18.0441 5.07314 17.2437 5.57641V5.5756ZM52.3035 21.5253L52.284 21.5154H55.4154C55.5589 21.8304 55.8077 22.093 56.1242 22.2637C56.4419 22.4344 56.8102 22.5033 57.1733 22.4599C58.4138 22.4599 59.0615 21.8346 59.0615 20.9059V19.2206C58.7927 19.742 58.3641 20.1762 57.8308 20.4678C57.2896 20.7638 56.6656 20.8992 56.0409 20.8561C53.6672 20.8561 52.0908 19.1599 52.0908 16.2407C52.0908 13.3214 53.5972 11.5014 56.1313 11.5014C56.772 11.4693 57.4076 11.6243 57.9504 11.9454C58.4302 12.2299 58.8176 12.6325 59.0704 13.1094V11.5812H62.2824V20.8103C62.2824 23.0378 60.1815 24.4313 57.09 24.4313C54.283 24.4263 52.4852 23.2223 52.3026 21.5253H52.3035ZM55.3338 16.2465C55.3338 17.7248 56.0312 18.597 57.1946 18.597C58.358 18.597 59.073 17.7921 59.073 16.2465C59.073 14.7582 58.3456 13.8195 57.1946 13.8195C56.0436 13.8195 55.3338 14.7674 55.3338 16.2474V16.2465ZM79.8096 23.9241V11.602H83.0322V13.2699H83.0925C83.3389 12.7137 83.7622 12.2425 84.3046 11.9204C84.8468 11.5981 85.4817 11.4405 86.1228 11.4689C88.6694 11.4498 90.1332 13.2034 90.1332 16.2557L90.0729 16.2456C90.0729 19.2879 88.618 21.0515 86.1432 21.0515C85.5093 21.0881 84.8786 20.9413 84.3365 20.6308C83.7944 20.3211 83.3669 19.8624 83.112 19.317H83.0517V23.9233L79.8096 23.9241ZM83.0207 16.2465C83.011 17.7339 83.749 18.6735 84.8903 18.6735C86.0315 18.6735 86.8299 17.7922 86.8299 16.2565L86.7696 16.2465C86.7696 14.7681 86.0324 13.8104 84.8912 13.8104C83.7499 13.8104 83.0305 14.7582 83.0207 16.2474V16.2465ZM63.5867 16.2465H63.5672C63.5672 13.1942 65.5874 11.3642 68.6177 11.3642C71.6481 11.3642 73.6683 13.1934 73.6683 16.2465C73.6683 19.2995 71.7083 21.1463 68.6177 21.1463C65.5271 21.1463 63.5867 19.3645 63.5867 16.2474V16.2465ZM66.85 16.2465C66.85 17.9626 67.5367 18.8996 68.6479 18.8996C69.759 18.8996 70.4767 17.9618 70.4767 16.2557L70.4563 16.2456C70.4563 14.5678 69.7475 13.585 68.6479 13.585C67.5482 13.585 66.8491 14.5304 66.8491 16.2474L66.85 16.2465ZM40.8884 16.2465C40.8884 13.1942 42.9086 11.3642 45.9389 11.3642C48.9692 11.3642 50.9895 13.1934 50.9895 16.2465C50.9895 19.2995 49.0401 21.1463 45.9389 21.1463C42.8377 21.1463 40.8892 19.3645 40.8892 16.2474L40.8884 16.2465ZM44.1712 16.2465C44.1712 17.9626 44.8579 18.8996 45.969 18.8996C47.0802 18.8996 47.7979 17.9618 47.7979 16.2557L47.7784 16.2456C47.7784 14.5678 47.0811 13.585 45.9699 13.585C44.8588 13.585 44.1721 14.5304 44.1721 16.2474L44.1712 16.2465ZM90.9395 17.9809H94.0797C94.1683 18.6735 94.7566 19.0801 95.7065 19.0801C96.6563 19.0801 97.1003 18.7957 97.1003 18.2935C97.1003 17.7913 96.7972 17.7048 96.0202 17.5543L94.1417 17.1844C92.1924 16.7961 91.1716 15.8383 91.1716 14.4073C91.2319 12.5491 92.9296 11.3642 95.6657 11.3642L95.6055 11.3551C98.3213 11.3551 100.009 12.5581 100.03 14.4921H97.0693C97.0693 13.8195 96.4738 13.4029 95.5842 13.4029C94.6946 13.4029 94.272 13.7255 94.272 14.2086C94.272 14.6917 94.645 14.843 95.3928 14.9852L97.4742 15.3834C99.4944 15.7817 100.303 16.54 100.303 17.9526C100.303 19.8483 98.4329 21.1371 95.656 21.1371C92.8791 21.1371 91.0715 19.8858 90.9403 17.9809H90.9395ZM105.06 21.0989C104.571 21.1136 104.085 21.0314 103.633 20.8577C103.182 20.6837 102.774 20.4226 102.437 20.0911C102.1 19.7574 101.842 19.3607 101.679 18.9271C101.518 18.4947 101.454 18.0352 101.494 17.5785V11.5788H104.736V16.9249C104.736 18.0241 105.357 18.6211 106.363 18.6211C106.6 18.6193 106.834 18.5699 107.049 18.4764C107.264 18.3824 107.455 18.2463 107.609 18.0773C107.763 17.908 107.877 17.7095 107.942 17.4954C108.007 17.2818 108.023 17.0575 107.989 16.8377V11.577H111.221L111.161 20.9043H108.017V19.1499H107.957C107.781 19.7348 107.398 20.246 106.871 20.5992C106.388 20.9235 105.809 21.0979 105.215 21.098C105.165 21.1014 105.114 21.1016 105.062 21.0989H105.06ZM124.73 20.9192V15.3552C124.73 14.4082 124.256 13.8768 123.337 13.8768C123.132 13.8737 122.93 13.912 122.743 13.9891C122.556 14.0656 122.389 14.179 122.254 14.3217C122.119 14.465 122.019 14.6336 121.959 14.8164C121.9 14.9995 121.884 15.1923 121.911 15.3818V20.9176H118.821V15.3244C118.821 14.3773 118.325 13.8744 117.437 13.8744C117.231 13.8727 117.027 13.9124 116.839 13.9908C116.651 14.0695 116.482 14.1851 116.346 14.33C116.209 14.4744 116.107 14.6445 116.047 14.8289C115.986 15.0138 115.968 15.2088 115.994 15.4009V20.9176H112.752L112.732 11.5713H115.884V13.3722H115.954C116.129 12.7947 116.503 12.2879 117.017 11.9313C117.531 11.5749 118.156 11.388 118.795 11.3999C119.436 11.3479 120.074 11.5219 120.585 11.888C121.098 12.2552 121.446 12.7891 121.56 13.3847H121.702C121.902 12.7877 122.307 12.2695 122.854 11.9105C123.402 11.5522 124.061 11.3739 124.728 11.4033C125.171 11.3876 125.613 11.4599 126.024 11.6153C126.436 11.7713 126.807 12.0067 127.116 12.3063C127.424 12.6062 127.661 12.9638 127.811 13.3555C127.961 13.7473 128.022 14.1643 127.988 14.5794V20.9209L124.73 20.9192ZM75.0328 20.9192L74.9815 11.5729H78.2643V20.9192H75.0328ZM36.3552 20.881V8.55886H39.5974V20.881H36.3552ZM76.0199 10.7223C75.822 10.6507 75.6412 10.5427 75.4883 10.4047C75.3371 10.267 75.2166 10.1026 75.1339 9.92083C75.0499 9.73882 75.0053 9.54296 75.0027 9.34464L74.9823 9.33551C74.9681 9.02577 75.053 8.71905 75.226 8.45493C75.3989 8.19025 75.6527 7.98051 75.9543 7.85296C76.2555 7.72488 76.5907 7.68433 76.9166 7.73654C77.2423 7.78844 77.5439 7.93102 77.7823 8.14567C78.0211 8.36009 78.1862 8.63657 78.2563 8.93967C78.3263 9.2429 78.2979 9.55888 78.1748 9.84684C78.0517 10.1348 77.8393 10.3815 77.5652 10.5552C77.2916 10.7292 76.9689 10.8224 76.6384 10.8229H76.6021C76.4028 10.8239 76.2051 10.7901 76.019 10.7232L76.0199 10.7223Z" fill="#394149"/>
</g>
<defs>
<clipPath id="clip0">
<rect width="128" height="28" fill="white"/>
</clipPath>
</defs>
</svg>
