<svg width="128" height="28" viewBox="0 0 128 28" fill="none" xmlns="http://www.w3.org/2000/svg">
<g clip-path="url(#clip0)">
<path d="M3.81553 27.6973C3.71418 27.6016 3.63378 27.488 3.57896 27.3628C3.52413 27.2377 3.49594 27.1035 3.49604 26.968V19.8425C3.79889 20.0495 4.16035 20.1657 4.53367 20.1761C4.9364 20.1987 5.33624 20.0991 5.67505 19.8917V26.968C5.67504 27.2413 5.56084 27.5035 5.35739 27.6973C5.15261 27.891 4.87501 27.9999 4.58556 27.9999C4.29674 27.9995 4.01987 27.8906 3.81553 27.6973ZM7.20688 25.3161C7.00407 25.1234 6.89018 24.8623 6.89014 24.5902V17.4941C7.19173 17.7029 7.55341 17.8196 7.92686 17.8286C8.33451 17.8395 8.73381 17.7177 9.05823 17.4837V24.5893C9.0575 24.8613 8.94369 25.1222 8.74147 25.3153C8.53736 25.507 8.26167 25.6148 7.97419 25.6152C7.83182 25.6155 7.69077 25.5893 7.55912 25.538C7.42747 25.4866 7.30777 25.4113 7.20688 25.3161ZM10.6947 22.941C10.4904 22.7472 10.3755 22.4846 10.3753 22.2107V15.0655C10.6941 15.2813 11.0756 15.3981 11.4675 15.3999L11.4156 15.419C11.8262 15.4289 12.2283 15.3074 12.557 15.0741V22.209C12.557 22.4828 12.4424 22.7453 12.2384 22.9392C12.0337 23.1324 11.7565 23.241 11.4675 23.241C11.1784 23.2417 10.9009 23.1338 10.6956 22.941H10.6947ZM0.975743 21.7978C0.847458 21.7979 0.720409 21.774 0.601868 21.7276C0.483326 21.6811 0.375616 21.613 0.284907 21.5271C0.102393 21.3539 -9.10812e-05 21.1192 6.07394e-08 20.8745V0.912879C0.00289444 0.66967 0.106914 0.437346 0.289462 0.266288C0.472082 0.0949926 0.718731 -0.00100529 0.975743 -0.000915444H1.20418C1.46066 -0.0010191 1.70676 0.0950152 1.88866 0.266288C2.07179 0.437044 2.17617 0.669488 2.17901 0.912879V20.8745C2.17876 21.1193 2.07597 21.354 1.89321 21.5271C1.80284 21.613 1.69543 21.6811 1.57719 21.7276C1.45895 21.774 1.33219 21.7978 1.20418 21.7978H0.975743ZM14.1407 20.483C13.9366 20.2895 13.8218 20.0273 13.8213 19.7537V14.2792C13.821 14.1459 13.8495 14.0138 13.905 13.8912C13.9607 13.7689 14.0418 13.6584 14.1434 13.5662C14.2455 13.4747 14.3659 13.4034 14.4975 13.3567C14.6296 13.3105 14.7701 13.29 14.9107 13.2964L14.8579 13.3162C15.0073 13.3014 15.1584 13.3179 15.3003 13.3645C15.4425 13.4103 15.5724 13.485 15.6808 13.5835C15.789 13.6817 15.8738 13.8008 15.9292 13.9327C15.9845 14.0647 16.0088 14.2064 16.0002 14.3482V19.7537C16 20.0271 15.8854 20.2893 15.6817 20.483C15.4771 20.6765 15.1999 20.7854 14.9107 20.7857C14.6221 20.7854 14.3452 20.677 14.1407 20.484V20.483ZM94.5105 19.3623C93.7875 18.9276 93.2434 18.2717 92.9686 17.5036C92.9505 17.4686 92.9406 17.4304 92.9395 17.3915C92.9394 17.3526 92.9478 17.3142 92.9641 17.2786C92.9811 17.2428 93.0063 17.2109 93.0378 17.1854C93.0688 17.1599 93.1055 17.1413 93.1452 17.1311L93.6003 16.9734C93.636 16.9593 93.6745 16.9524 93.7132 16.9535C93.7522 16.9545 93.7906 16.963 93.826 16.9785C93.8608 16.9945 93.8918 17.0171 93.9171 17.0449C93.942 17.0731 93.9609 17.1056 93.9726 17.1406C94.2057 17.6966 94.6202 18.1675 95.1558 18.4846C95.6895 18.8028 96.3162 18.9517 96.9453 18.9097C98.9058 18.9097 99.8706 18.2613 99.8706 16.944C99.8891 16.5978 99.7775 16.2567 99.5557 15.9811C99.3333 15.7061 99.0154 15.5145 98.6582 15.4405C98.1213 15.2886 97.5675 15.1963 97.008 15.1655L95.8876 15.0284C95.5369 14.9579 95.1905 14.8693 94.85 14.7629C94.5136 14.6665 94.1999 14.5096 93.9261 14.3008C93.6505 14.0649 93.433 13.7743 93.289 13.4499C93.145 13.1254 93.0785 12.7747 93.0942 12.423C93.167 10.704 94.526 9.5824 96.9243 9.5824C97.7253 9.49925 98.5334 9.6624 99.2289 10.0479C99.9241 10.4344 100.47 11.0227 100.784 11.7256C100.867 11.8825 100.784 12.0101 100.617 12.0894L100.162 12.286C99.9744 12.355 99.9024 12.3447 99.7878 12.1585C99.5526 11.6369 99.1485 11.1996 98.6337 10.91C98.1192 10.6205 97.5209 10.4935 96.9252 10.5471C95.1704 10.5471 94.2165 11.2058 94.2165 12.3851C94.2078 12.7459 94.3371 13.0973 94.5806 13.3748C94.8226 13.653 95.1627 13.8389 95.5381 13.8982C96.0963 14.0709 96.6751 14.1766 97.2611 14.2128C97.9701 14.2485 98.6696 14.3842 99.3363 14.6155C99.8473 14.7684 100.287 15.0835 100.581 15.5077C100.877 15.9319 101.008 16.4394 100.955 16.9449C100.955 18.7829 99.5438 19.8933 96.9498 19.8933C96.8084 19.9088 96.6662 19.9165 96.5238 19.9166C95.8113 19.9167 95.1135 19.7245 94.5123 19.3623H94.5105ZM105.472 16.2941V10.0626C105.472 9.84708 105.545 9.77804 105.763 9.77804H106.25C106.469 9.77804 106.541 9.84708 106.541 10.0626V16.3044C106.585 16.9994 106.907 17.6523 107.442 18.1294C107.978 18.6069 108.685 18.8728 109.42 18.8726C110.156 18.8727 110.863 18.6068 111.399 18.1294C111.934 17.6518 112.256 16.9992 112.301 16.3044V10.0626C112.301 9.84708 112.373 9.77804 112.6 9.77804H113.079C113.307 9.77804 113.379 9.84708 113.379 10.0626V16.2941C113.379 18.5252 111.99 19.8718 109.427 19.8718C106.864 19.8718 105.474 18.5252 105.474 16.2949L105.472 16.2941ZM61.8611 16.2353V13.2084C61.8611 10.9385 63.3765 9.57209 66.0115 9.57209C68.6465 9.57209 70.162 10.9385 70.162 13.2084V16.2353C70.162 18.5053 68.6365 19.8718 66.0115 19.8718C63.3866 19.8718 61.862 18.5062 61.862 16.2353H61.8611ZM63.7088 13.2084V16.2544C63.7088 17.5424 64.5498 18.2209 66.0634 18.2209C67.577 18.2209 68.4099 17.5131 68.4099 16.2544V13.2084C68.4099 11.9308 67.5689 11.2419 66.0634 11.2419C64.5579 11.2419 63.7097 11.9411 63.7097 13.2084H63.7088ZM36.4194 16.2353V13.2084C36.4194 10.9385 37.9349 9.57209 40.569 9.57209C43.2031 9.57209 44.7195 10.9385 44.7195 13.2084V16.2353C44.7195 18.5053 43.1949 19.8718 40.569 19.8718C37.9431 19.8718 36.4203 18.5062 36.4203 16.2353H36.4194ZM38.2762 13.2084V16.2544C38.2762 17.5424 39.1072 18.2209 40.6218 18.2209C42.1363 18.2209 42.9774 17.5131 42.9774 16.2544V13.2084C42.9774 11.9308 42.1372 11.2419 40.6218 11.2419C39.1063 11.2419 38.2771 11.9411 38.2771 13.2084H38.2762ZM53.3635 19.8321C50.6757 19.8321 49.2131 18.4657 49.2131 16.1958V13.1498C49.2131 10.9083 50.7276 9.52894 53.3635 9.52894C55.4388 9.52894 56.7877 10.3048 57.3583 11.8566C57.3901 11.9151 57.4069 11.9797 57.4075 12.0454C57.4084 12.1111 57.3931 12.1761 57.3629 12.2352C57.3326 12.2944 57.2884 12.3463 57.2337 12.3868C57.1785 12.4264 57.1148 12.4538 57.0471 12.467L56.237 12.7325C55.8848 12.8506 55.7391 12.7817 55.6144 12.4378C55.443 12.0178 55.1284 11.664 54.7206 11.4325C54.313 11.2009 53.8354 11.1047 53.3635 11.1592C51.838 11.1592 51.0089 11.8567 51.0089 13.1249V16.2501C51.0089 17.5381 51.8481 18.2166 53.3635 18.2166C54.879 18.2166 55.8119 17.5579 55.8119 16.5949V15.8672H53.5601C53.1869 15.8672 53.0523 15.7301 53.0523 15.3862V14.7171C53.0523 14.3723 53.1869 14.2456 53.5601 14.2456H57.0789C57.483 14.2456 57.5759 14.3732 57.5759 14.7171V16.5845C57.5867 17.0244 57.4934 17.461 57.3028 17.8622C57.1125 18.2635 56.8298 18.6193 56.4755 18.9037C55.6735 19.5082 54.6788 19.837 53.6539 19.8364C53.5592 19.8399 53.463 19.8388 53.3654 19.833L53.3635 19.8321ZM127.262 19.6657C127.045 19.6657 126.971 19.5968 126.971 19.3804V13.7102C126.971 12.8849 127.03 12.0607 127.147 11.2429H127.085C126.76 11.9904 126.382 12.7162 125.954 13.4153L123.722 17.1398C123.695 17.2043 123.648 17.2595 123.587 17.2984C123.526 17.3372 123.454 17.3576 123.381 17.357H123.09C123.016 17.3568 122.942 17.3364 122.879 17.2984C122.817 17.2592 122.768 17.2043 122.737 17.1398L120.475 13.3758C120.073 12.6873 119.727 11.971 119.438 11.2333H119.376C119.482 12.0583 119.538 12.8885 119.543 13.7197V19.3804C119.543 19.5968 119.47 19.6657 119.241 19.6657H118.837C118.609 19.6657 118.536 19.5968 118.536 19.3804V10.0635C118.536 9.84792 118.609 9.77899 118.837 9.77899H119.21C119.296 9.7712 119.382 9.78865 119.456 9.82898C119.53 9.86881 119.589 9.92892 119.625 10.0014L123.257 16.1147L126.868 10.06C126.982 9.85393 127.044 9.82382 127.273 9.82382L127.697 9.77468C127.925 9.77468 127.998 9.84361 127.998 10.0591V19.3761C127.998 19.5925 127.925 19.6614 127.697 19.6614L127.262 19.6657ZM81.6905 19.6657C81.472 19.6657 81.3892 19.5968 81.3892 19.3804V10.0635C81.3892 9.84792 81.472 9.77899 81.6905 9.77899H85.5615C86.4255 9.77896 87.2541 10.1039 87.8652 10.6825C88.4759 11.2613 88.819 12.0462 88.8191 12.8645C88.819 13.6831 88.476 14.4682 87.8652 15.0474C87.2543 15.6262 86.4256 15.9515 85.5615 15.9517H82.4487V19.3813C82.4487 19.5976 82.3959 19.6667 82.1756 19.6667L81.6905 19.6657ZM82.354 14.9775H85.4669C85.7639 14.9773 86.0581 14.9217 86.3324 14.8138C86.607 14.7067 86.8563 14.549 87.066 14.35C87.2761 14.151 87.4428 13.9149 87.5566 13.6551C87.6703 13.3952 87.7288 13.1165 87.7287 12.8351C87.7287 12.5538 87.6703 12.2753 87.5566 12.0153C87.443 11.7556 87.2763 11.5197 87.066 11.3213C86.8564 11.1219 86.6071 10.964 86.3324 10.8566C86.058 10.7489 85.7639 10.6935 85.4669 10.6936H82.354V14.9775ZM75.3455 19.6657C75.1171 19.6657 75.0452 19.5968 75.0452 19.3804V10.0635C75.0452 9.84792 75.1171 9.77899 75.3455 9.77899H75.8234C76.0509 9.77899 76.1037 9.84792 76.1037 10.0635V19.3804C76.1037 19.5968 76.1037 19.6657 75.8234 19.6657H75.3455ZM26.6713 19.6657C26.3072 19.6657 26.1625 19.5373 26.1625 19.1941V10.2506C26.1625 9.90572 26.3081 9.77899 26.6713 9.77899H27.5114C27.8846 9.77899 28.0093 9.90744 28.0093 10.2506V18.0346H32.2317C32.5957 18.0346 32.7295 18.1622 32.7295 18.5062V19.1959C32.7295 19.5408 32.5939 19.6675 32.2317 19.6675L26.6713 19.6657ZM4.64472 19.4201H4.41626C4.15753 19.4199 3.90943 19.3225 3.72634 19.1493C3.54335 18.976 3.44053 18.741 3.44052 18.4959V3.29234C3.44321 3.0491 3.54726 2.8167 3.72998 2.64575C3.91288 2.47485 4.15934 2.37882 4.41626 2.37844H4.64472C4.9014 2.37867 5.14764 2.47475 5.33009 2.64575C5.5128 2.8167 5.61682 3.0491 5.61952 3.29234V18.5166C5.6196 18.6379 5.59438 18.7579 5.54533 18.8699C5.49628 18.9819 5.42439 19.0836 5.33373 19.1692C5.24338 19.2551 5.13599 19.3232 5.01774 19.3697C4.89949 19.4161 4.77274 19.44 4.64472 19.4399V19.4201ZM17.5694 18.3768C17.3664 18.1842 17.2525 17.9232 17.2527 17.651V16.413C17.2528 16.1525 17.3617 15.9027 17.5558 15.7181C17.7508 15.5339 18.0149 15.4303 18.2903 15.4301C18.4384 15.4173 18.5877 15.4346 18.7281 15.481C18.8688 15.528 18.9972 15.603 19.1049 15.7008C19.2118 15.7979 19.2955 15.9155 19.3506 16.0457C19.4053 16.1769 19.4292 16.3178 19.4207 16.4586V17.6484C19.4208 17.7832 19.3928 17.9168 19.3383 18.0413C19.2838 18.1659 19.2039 18.2791 19.1031 18.3743C19.0025 18.4697 18.883 18.5454 18.7515 18.597C18.62 18.6486 18.4791 18.6752 18.3367 18.6752C18.0506 18.6748 17.7762 18.5676 17.573 18.3768H17.5694ZM7.8413 17.0837C7.58536 17.0838 7.33983 16.9877 7.15866 16.8165C7.06906 16.7316 6.998 16.6307 6.94959 16.5198C6.90117 16.4088 6.87634 16.2899 6.87651 16.1699V5.65192C6.87465 5.53084 6.89848 5.41072 6.94659 5.29852C6.99443 5.1867 7.06528 5.08497 7.15502 4.99933C7.24492 4.91327 7.35194 4.84497 7.46993 4.79843C7.58787 4.75181 7.71442 4.72786 7.84222 4.72781H8.08068C8.33777 4.73033 8.5834 4.82884 8.76422 5.00196C8.94515 5.17488 9.04659 5.40846 9.0464 5.65192V16.1699C9.04643 16.4123 8.94493 16.6448 8.76422 16.8165C8.6744 16.9014 8.56782 16.9687 8.45053 17.0145C8.33325 17.0604 8.20757 17.0838 8.08068 17.0837H7.8413ZM11.5148 14.6758H11.2973C11.0404 14.6753 10.794 14.5794 10.611 14.4086C10.4288 14.2373 10.3249 14.0051 10.3216 13.762V8.10126C10.3132 7.97512 10.3321 7.84866 10.3771 7.72966C10.4223 7.6104 10.4929 7.50128 10.5846 7.409C10.6762 7.31724 10.7864 7.24394 10.9086 7.19347C11.0315 7.1439 11.1637 7.11835 11.2973 7.11843H11.5258C11.6538 7.11845 11.7805 7.14239 11.8987 7.18884C12.0169 7.23529 12.1243 7.30331 12.2148 7.38911C12.3977 7.56242 12.5005 7.79754 12.5006 8.04264V13.7429C12.5021 13.8649 12.4779 13.986 12.4296 14.0991C12.3815 14.2123 12.3103 14.3153 12.2202 14.4025C12.1289 14.489 12.0207 14.5578 11.9017 14.6051C11.7829 14.6523 11.6554 14.6767 11.5266 14.6766L11.5148 14.6758ZM14.959 12.5628H14.7305C14.4721 12.5626 14.2242 12.4652 14.0415 12.292C13.8585 12.1187 13.7557 11.8837 13.7557 11.6386V10.1729C13.7584 9.92923 13.8628 9.69649 14.0461 9.52547C14.228 9.3542 14.4741 9.25816 14.7305 9.25827H14.959C15.216 9.25827 15.4626 9.35425 15.6453 9.52547C15.8283 9.69658 15.9324 9.92934 15.9347 10.1729V11.6386C15.9343 11.8817 15.8329 12.1148 15.6526 12.2877C15.4717 12.4609 15.2261 12.5598 14.969 12.5628H14.959Z" fill="#394149"/>
</g>
<defs>
<clipPath id="clip0">
<rect width="128" height="28" fill="white"/>
</clipPath>
</defs>
</svg>
