<svg width="128" height="26" viewBox="0 0 128 26" fill="none" xmlns="http://www.w3.org/2000/svg">
<g clip-path="url(#clip0)">
<path d="M4.10086 24.6557C3.43056 24.1276 2.59994 23.8515 1.75083 23.8744H0.000915527V20.3404H1.80615C3.31997 20.3104 4.80197 20.7823 6.02632 21.684C6.70664 22.1922 7.52992 22.4663 8.37542 22.4662C9.22096 22.4665 10.0443 22.1923 10.7245 21.684C11.9651 20.8102 13.4401 20.3418 14.9514 20.3415C16.4624 20.3416 17.9371 20.8102 19.1772 21.684C19.8575 22.1923 20.6808 22.4664 21.5264 22.4662C22.3719 22.4664 23.1952 22.1923 23.8755 21.684C25.0848 20.7936 26.5459 20.3222 28.0412 20.3404H29.793V23.8744H28.0412C27.1924 23.8515 26.3621 24.1276 25.6921 24.6557C24.452 25.5295 22.9773 25.998 21.4662 25.9982C19.9552 25.998 18.4805 25.5295 17.2403 24.6557C16.5716 24.126 15.741 23.8496 14.8922 23.8744C14.0433 23.8532 13.2133 24.1292 12.5422 24.6557C11.3044 25.5299 9.83131 25.9985 8.32199 25.9982C6.81236 25.9987 5.33896 25.5301 4.10086 24.6557ZM58.6501 25.0073C57.6069 25.0446 56.5776 24.7563 55.7018 24.1815C55.3279 23.933 55.0087 23.6092 54.7639 23.2302C54.5178 22.8502 54.3521 22.4226 54.2773 21.9746C54.2773 21.7544 54.2773 21.6559 54.5711 21.6559H56.3983C56.476 21.6585 56.5513 21.6841 56.6149 21.7294C56.6788 21.7737 56.7283 21.8361 56.7571 21.9089C56.8765 22.2441 57.1145 22.5226 57.425 22.6904C57.8007 22.888 58.2191 22.9875 58.6425 22.98C58.8978 22.9941 59.1534 22.9567 59.3943 22.8699C59.6354 22.7831 59.857 22.6486 60.046 22.474C60.2185 22.2911 60.3528 22.0749 60.441 21.8384C60.5284 21.6019 60.568 21.35 60.5574 21.0977V20.4042C59.9032 20.8913 59.107 21.1431 58.2952 21.1198C57.7268 21.1408 57.1602 21.0453 56.6292 20.8389C56.0982 20.6329 55.6139 20.3201 55.2056 19.9194C54.4214 19.0983 53.9832 18.0007 53.9834 16.8586C53.9834 15.7166 54.4216 14.6192 55.2056 13.798C55.6159 13.401 56.1006 13.0913 56.6312 12.8872C57.1619 12.6828 57.7277 12.5882 58.2952 12.609C59.1301 12.5866 59.9474 12.8546 60.6109 13.3681V13.1914C60.6058 13.1491 60.6101 13.1062 60.6233 13.0658C60.6365 13.0252 60.6586 12.9883 60.6881 12.9577C60.7177 12.9273 60.7536 12.9039 60.7931 12.8891C60.8323 12.8737 60.8744 12.8678 60.9162 12.8718L62.7214 12.8601C62.7636 12.8548 62.8064 12.8596 62.8465 12.8739C62.8866 12.8882 62.9229 12.9116 62.9525 12.9425C62.9821 12.9734 63.0042 13.0109 63.0171 13.0519C63.03 13.0929 63.0333 13.1364 63.0267 13.1789V21.0735C63.0462 21.6063 62.9484 22.1368 62.7405 22.6266C62.532 23.1161 62.218 23.5524 61.8217 23.9034C60.9966 24.6155 59.9481 25.0071 58.8638 25.0082C58.7818 25.0121 58.7178 25.0111 58.6492 25.0082L58.6501 25.0073ZM59.318 19.0047C59.5756 18.8926 59.8055 18.7244 59.9916 18.5121C60.3533 18.0394 60.5496 17.4585 60.5498 16.8606C60.5496 16.2627 60.3533 15.6817 59.9916 15.209C59.8065 15.0006 59.5785 14.8358 59.3237 14.7261C59.0683 14.6159 58.7922 14.5636 58.5146 14.5726C58.2309 14.564 57.9487 14.6176 57.6874 14.73C57.4264 14.8419 57.1926 15.01 57.0023 15.2225C56.6017 15.6748 56.3909 16.2671 56.4145 16.8741C56.3953 17.4757 56.6019 18.0624 56.9928 18.516C57.1833 18.7278 57.4166 18.8954 57.6769 19.0076C57.9382 19.1198 58.2204 19.1736 58.5041 19.1651C58.7825 19.1721 59.0589 19.1174 59.3142 19.0047H59.318ZM81.4903 24.7031C81.4497 24.6903 81.4127 24.6678 81.3825 24.6374C81.3522 24.6071 81.33 24.5696 81.3176 24.5283C81.3049 24.4874 81.3023 24.4439 81.31 24.4018V15.3732C81.3222 15.2847 81.3144 15.1946 81.2871 15.1096C81.2598 15.025 81.2131 14.9482 81.1507 14.8855C81.0885 14.822 81.0123 14.7743 80.9284 14.7464C80.8444 14.7187 80.7552 14.7112 80.6679 14.7242H80.3091C80.0696 14.7242 79.9513 14.6363 79.9513 14.4595V13.1605C79.9453 13.0801 79.9672 13.0002 80.0133 12.9345C80.0592 12.8676 80.1267 12.8191 80.2042 12.7974C80.5802 12.6595 80.9779 12.5924 81.3777 12.5994C81.777 12.5637 82.1777 12.6495 82.5285 12.8457C82.88 13.0417 83.1654 13.3397 83.3481 13.7014C83.6982 13.3427 84.1171 13.06 84.5789 12.8708C85.041 12.6812 85.5364 12.5891 86.0349 12.6004C86.6056 12.5775 87.175 12.6707 87.7094 12.8746C88.2421 13.0796 88.7288 13.3906 89.1407 13.7893C89.9094 14.625 90.3369 15.7245 90.3372 16.8664C90.3369 18.0086 89.9095 19.1084 89.1407 19.9445C88.7301 20.3468 88.2432 20.6605 87.7094 20.8668C87.175 21.0735 86.6046 21.1678 86.033 21.144C85.2183 21.1626 84.4199 20.9113 83.7593 20.4284V24.4037C83.7593 24.6123 83.6505 24.7117 83.4435 24.7117H81.6163C81.6001 24.7133 81.5838 24.7133 81.5676 24.7117C81.5416 24.7132 81.5156 24.7106 81.4903 24.7041V24.7031ZM85.0207 14.6585C84.7625 14.7712 84.5295 14.9354 84.3356 15.1414C83.9414 15.6095 83.7368 16.2113 83.7631 16.8258C83.7395 17.44 83.9437 18.0408 84.3356 18.5103C84.5295 18.7163 84.7625 18.8806 85.0207 18.9932C85.2784 19.1054 85.5559 19.1631 85.8365 19.1631C86.1173 19.1629 86.3951 19.1052 86.6532 18.9932C86.9114 18.8806 87.1444 18.7163 87.3383 18.5103C87.7463 18.0488 87.9606 17.4446 87.9356 16.8258C87.9644 16.2065 87.7496 15.6008 87.3383 15.1414C87.1443 14.9354 86.9114 14.7712 86.6532 14.6585C86.395 14.5469 86.1172 14.489 85.8365 14.4885C85.5556 14.4904 85.2782 14.5499 85.0207 14.6634V14.6585ZM108.021 20.9489C107.639 20.7802 107.307 20.514 107.058 20.1763C106.289 20.8454 105.296 21.1885 104.284 21.1343C103.814 21.1566 103.345 21.079 102.906 20.9064C102.468 20.7339 102.07 20.4707 101.738 20.1337C101.408 19.78 101.153 19.3624 100.986 18.9062C100.819 18.4504 100.746 17.9652 100.77 17.4797V13.1741C100.77 12.9654 100.865 12.8553 101.074 12.8553H102.901C102.944 12.8498 102.986 12.8544 103.027 12.8686C103.067 12.8828 103.103 12.9064 103.133 12.9373C103.162 12.9683 103.185 13.0057 103.197 13.0468C103.21 13.0879 103.213 13.1315 103.207 13.1741V17.1494C103.187 17.6438 103.354 18.1272 103.674 18.5015C103.835 18.6734 104.03 18.8084 104.247 18.8976C104.462 18.9865 104.694 19.0276 104.927 19.0183C105.165 19.0296 105.403 18.9925 105.627 18.9091C105.851 18.8257 106.057 18.6983 106.232 18.5343C106.399 18.3614 106.528 18.156 106.614 17.9307C106.698 17.7051 106.735 17.4645 106.724 17.2238V13.1672C106.717 13.1247 106.72 13.0811 106.733 13.04C106.746 12.9989 106.768 12.9614 106.797 12.9305C106.827 12.8995 106.863 12.8761 106.904 12.8619C106.944 12.8476 106.987 12.843 107.029 12.8485H108.879C109.085 12.8485 109.183 12.9586 109.183 13.1672V18.3528C109.183 18.7835 109.368 18.9912 109.727 18.9912C109.896 18.9977 110.065 18.9791 110.228 18.9361C110.269 18.9242 110.312 18.9223 110.354 18.9303C110.396 18.9379 110.436 18.9551 110.47 18.9806C110.505 19.0061 110.533 19.0391 110.553 19.0771C110.573 19.1153 110.584 19.1577 110.585 19.2008L110.717 20.577C110.723 20.6159 110.721 20.6557 110.712 20.694C110.703 20.7328 110.686 20.7693 110.662 20.8011C110.639 20.8329 110.61 20.8595 110.576 20.8794C110.543 20.8998 110.506 20.9131 110.468 20.9189C110.07 21.0502 109.656 21.1206 109.238 21.1276C109.155 21.1365 109.072 21.141 108.989 21.1412C108.655 21.1475 108.324 21.0836 108.015 20.9537L108.021 20.9489ZM44.9047 19.9609C44.0981 19.136 43.6458 18.0222 43.6462 16.8616C43.646 15.7013 44.0982 14.5877 44.9047 13.7632C45.8248 12.9994 46.978 12.5819 48.1679 12.582C49.3578 12.5818 50.5111 12.9992 51.4311 13.7632C52.2191 14.5944 52.6594 15.7017 52.66 16.8538C52.6596 18.0059 52.2193 19.1134 51.4311 19.9445V19.9561C50.513 20.7243 49.359 21.1444 48.1679 21.144C46.9764 21.1478 45.8208 20.7312 44.9 19.9657L44.9047 19.9609ZM46.6222 15.2709C46.2374 15.7202 46.0257 16.2949 46.0258 16.8895C46.0257 17.4841 46.2374 18.0589 46.6222 18.5083C47.0488 18.8993 47.6038 19.1159 48.1794 19.1158C48.7543 19.1157 49.3086 18.8991 49.7346 18.5083C50.12 18.0592 50.3321 17.4843 50.3319 16.8895C50.3321 16.2947 50.12 15.7199 49.7346 15.2709C49.3083 14.8807 48.7541 14.6645 48.1794 14.6643C47.6022 14.6643 47.0457 14.8819 46.6184 15.2747L46.6222 15.2709ZM92.6777 20.4563C92.3362 20.2485 92.0455 19.9653 91.8275 19.6277C91.6086 19.2905 91.468 18.9074 91.4163 18.5073C91.4163 18.2871 91.4907 18.177 91.7302 18.177H93.3303C93.406 18.18 93.4794 18.2044 93.5421 18.2475C93.6062 18.2893 93.6569 18.3491 93.6881 18.4195C93.9171 19.0144 94.5163 19.3109 95.4723 19.3109C95.806 19.3264 96.1383 19.2583 96.4398 19.1128C96.5441 19.0649 96.6337 18.9896 96.6994 18.8946C96.7644 18.7996 96.8027 18.6884 96.81 18.573C96.81 18.2832 96.6364 18.0901 96.2881 17.9568C95.8752 17.818 95.4483 17.7256 95.0153 17.6816C94.5012 17.623 93.9913 17.5314 93.4887 17.4072C93.001 17.295 92.5575 17.0381 92.2149 16.6694C92.0142 16.4181 91.8664 16.1278 91.7808 15.8165C91.6945 15.5054 91.6725 15.1796 91.7159 14.8594C91.76 14.5395 91.8684 14.2321 92.0346 13.9563C92.2011 13.6804 92.422 13.442 92.6834 13.2561C93.4672 12.7508 94.3868 12.5044 95.3149 12.5511C96.214 12.5205 97.1035 12.7457 97.8825 13.2011C98.1964 13.3808 98.4667 13.6293 98.6735 13.9284C98.881 14.227 99.0199 14.5689 99.0799 14.929C99.0799 15.1502 98.9845 15.2592 98.7851 15.2592H97.1755C97.1086 15.2631 97.0422 15.2467 96.9847 15.2119C96.9264 15.1765 96.8802 15.1239 96.852 15.0613C96.7434 14.8021 96.541 14.5948 96.2862 14.4818C95.9979 14.3288 95.6757 14.2529 95.3502 14.2616C95.0314 14.2442 94.7135 14.3082 94.4257 14.448C94.3248 14.488 94.2379 14.5572 94.1757 14.647C94.1141 14.7376 94.0808 14.845 94.0803 14.955C94.0871 15.1057 94.1412 15.2501 94.2348 15.3674C94.3292 15.4841 94.4579 15.5673 94.6022 15.605C95.0194 15.7642 95.4531 15.875 95.895 15.9354C96.4043 16.0039 96.9095 16.1005 97.4083 16.225C97.8957 16.3365 98.339 16.5933 98.6811 16.962C98.8643 17.165 99.0054 17.4031 99.0962 17.6622C99.1876 17.9209 99.2275 18.1954 99.2135 18.4697C99.2233 18.8504 99.1352 19.2271 98.9578 19.563C98.7797 19.8983 98.5195 20.1816 98.2021 20.3858C97.3895 20.9136 96.4373 21.1784 95.4723 21.1449H95.2558C94.3512 21.1465 93.4617 20.9109 92.6739 20.4611L92.6777 20.4563ZM39.3354 20.6099C39.1137 20.4442 38.9355 20.226 38.8164 19.9744C38.6977 19.7231 38.6404 19.4464 38.6494 19.1679V8.96107C38.6439 8.9181 38.6485 8.87447 38.6628 8.83362C38.6764 8.7925 38.6992 8.7551 38.7295 8.72445C38.7597 8.69336 38.7966 8.66995 38.8373 8.65595C38.8782 8.64216 38.9215 8.63781 38.9642 8.64334H40.7914C40.9985 8.64334 41.0958 8.75243 41.0958 8.96202V18.376C41.0958 18.7951 41.2809 19.0038 41.6616 19.0038C41.8225 19.0104 41.9834 18.9918 42.1387 18.9487C42.3562 18.9487 42.4755 19.0143 42.486 19.2133L42.6491 20.5896C42.6582 20.6297 42.6582 20.6713 42.6491 20.7113C42.6396 20.7509 42.6221 20.7881 42.5976 20.8205C42.5718 20.853 42.5393 20.8794 42.5022 20.8977C42.4664 20.9168 42.4271 20.928 42.3868 20.9306C41.9864 21.0644 41.568 21.1347 41.1464 21.1392H40.9899C40.3965 21.1403 39.8173 20.9558 39.3316 20.6109L39.3354 20.6099ZM124.679 20.6099C124.449 20.4492 124.262 20.2331 124.136 19.9812C124.007 19.73 123.942 19.4507 123.945 19.1679V16.5805C123.968 16.0874 123.804 15.6039 123.488 15.2283C123.335 15.0559 123.147 14.9199 122.936 14.8304C122.725 14.7409 122.497 14.6999 122.268 14.7106C122.063 14.7028 121.858 14.7424 121.67 14.8265C121.482 14.9108 121.315 15.037 121.181 15.1955C120.895 15.565 120.748 16.0256 120.768 16.4946V20.5578C120.768 20.7674 120.672 20.8765 120.463 20.8765H118.625C118.582 20.8819 118.539 20.8773 118.499 20.8629C118.458 20.8489 118.42 20.8255 118.39 20.7944C118.36 20.7637 118.337 20.7263 118.324 20.6853C118.309 20.6442 118.305 20.6 118.311 20.5567V16.5814C118.334 16.0938 118.183 15.6138 117.886 15.2293C117.754 15.0657 117.588 14.9338 117.399 14.843C117.211 14.7538 117.006 14.7074 116.798 14.7069C116.577 14.6981 116.356 14.7366 116.15 14.8198C115.944 14.9034 115.757 15.0297 115.603 15.1907C115.292 15.5477 115.131 16.0143 115.157 16.4897V20.553C115.162 20.5963 115.158 20.6401 115.144 20.6814C115.13 20.7227 115.107 20.7601 115.076 20.7905C115.046 20.8217 115.01 20.8453 114.969 20.8592C114.929 20.8735 114.885 20.878 114.842 20.8726H113.072C112.864 20.8726 112.768 20.7635 112.768 20.5539V15.3684C112.781 15.2799 112.773 15.1896 112.745 15.1048C112.718 15.02 112.671 14.943 112.608 14.8806C112.546 14.8174 112.471 14.7697 112.387 14.7415C112.303 14.7137 112.214 14.7062 112.126 14.7194H111.768C111.529 14.7194 111.409 14.6314 111.409 14.4547V13.1557C111.404 13.0755 111.425 12.9958 111.47 12.9297C111.517 12.8631 111.584 12.8147 111.661 12.7925C112.038 12.6545 112.436 12.5874 112.836 12.5946C113.22 12.5616 113.605 12.6389 113.947 12.8177C114.29 12.9968 114.575 13.2704 114.771 13.6067C115.138 13.2551 115.573 12.9836 116.048 12.8089C116.524 12.6351 117.03 12.5622 117.534 12.5946C118.024 12.5702 118.513 12.6635 118.96 12.8669C119.409 13.0695 119.803 13.3763 120.112 13.7623C120.472 13.3663 120.914 13.0561 121.407 12.8543C121.9 12.6525 122.431 12.5641 122.962 12.5955C123.437 12.573 123.911 12.6505 124.354 12.8234C124.798 12.9951 125.201 13.2583 125.539 13.5961C125.87 13.9489 126.126 14.3658 126.293 14.8217C126.459 15.2779 126.532 15.7636 126.508 16.2492V18.3741C126.508 18.7933 126.693 19.0018 127.041 19.0018C127.21 19.0096 127.378 18.991 127.541 18.9467C127.766 18.9467 127.885 19.0347 127.9 19.2114L127.995 20.5878C128.004 20.6275 128.004 20.6688 127.995 20.7085C127.987 20.7479 127.97 20.785 127.947 20.8175C127.923 20.8504 127.892 20.8775 127.857 20.8968C127.821 20.9155 127.782 20.9263 127.741 20.9286C127.338 21.0615 126.916 21.1319 126.491 21.1373H126.341C125.745 21.139 125.164 20.9552 124.675 20.6109L124.679 20.6099ZM75.9811 20.6099C75.7629 20.4416 75.5878 20.2226 75.4707 19.9715C75.3533 19.7204 75.297 19.4446 75.3066 19.167V13.1789C75.3013 13.136 75.3055 13.0924 75.319 13.0513C75.3335 13.0104 75.3566 12.9733 75.3867 12.9423C75.4173 12.9118 75.4541 12.8883 75.4945 12.8737C75.535 12.8597 75.578 12.855 75.6205 12.8601H77.4476C77.4898 12.8548 77.5326 12.8595 77.5727 12.8738C77.6127 12.8881 77.649 12.9116 77.6785 12.9425C77.708 12.9734 77.73 13.0109 77.7428 13.0519C77.7556 13.0929 77.7587 13.1364 77.752 13.1789V18.376C77.752 18.7951 77.9368 19.0044 78.3064 19.0038C78.4713 19.0098 78.6362 18.9913 78.7958 18.9487C79.0143 18.9487 79.1336 19.0143 79.1441 19.2133L79.3073 20.5896C79.3163 20.6297 79.3163 20.6713 79.3073 20.7113C79.297 20.7506 79.2795 20.7877 79.2557 20.8205C79.2299 20.853 79.1974 20.8794 79.1603 20.8977C79.1246 20.9168 79.0852 20.928 79.0449 20.9306C78.6414 21.0652 78.2198 21.1355 77.795 21.1392H77.6509C77.0527 21.1407 76.4685 20.9563 75.9773 20.6109L75.9811 20.6099ZM65.8873 19.9609C65.098 19.1268 64.6574 18.0165 64.6574 16.8616C64.6575 15.7069 65.0981 14.5969 65.8873 13.7632C66.808 13.0009 67.9609 12.5846 69.1504 12.5849C70.3399 12.5846 71.4929 13.0009 72.4136 13.7632C73.2013 14.5947 73.6415 15.7018 73.6425 16.8538C73.6417 18.0058 73.2015 19.1131 72.4136 19.9445V19.9561C71.4936 20.7199 70.3404 21.1374 69.1504 21.1373C67.9603 21.1412 66.8057 20.7271 65.8835 19.9657L65.8873 19.9609ZM68.3184 14.8092C68.0495 14.9131 67.8037 15.0701 67.5952 15.2709C67.2151 15.7224 67.0063 16.2962 67.0065 16.8895C67.0063 17.4828 67.2151 18.0567 67.5952 18.5083C67.8035 18.7094 68.0494 18.8664 68.3184 18.9699C68.5871 19.0739 68.8735 19.1229 69.1609 19.1139C69.4469 19.1208 69.7314 19.0713 69.9987 18.9681C70.2653 18.864 70.5092 18.7077 70.7162 18.5083C71.0956 18.0564 71.3039 17.4826 71.3039 16.8895C71.3039 16.2964 71.0956 15.7228 70.7162 15.2709C70.5089 15.0718 70.2651 14.9156 69.9987 14.8111C69.7314 14.7079 69.4469 14.6583 69.1609 14.6652H69.0961C68.8286 14.6663 68.5637 14.7174 68.3146 14.8159L68.3184 14.8092ZM4.10467 18.3315C3.43422 17.8037 2.6037 17.5276 1.75464 17.5502H0.00473V14.0162H1.80996C3.32378 13.9862 4.80578 14.458 6.03014 15.3597C6.71046 15.8678 7.53374 16.1421 8.37924 16.142C9.22478 16.1423 10.0481 15.868 10.7283 15.3597C11.9689 14.4859 13.4439 14.0174 14.9552 14.0171C16.4662 14.0173 17.9409 14.4858 19.1811 15.3597C19.8613 15.868 20.6846 16.1422 21.5302 16.142C22.3757 16.1422 23.199 15.868 23.8793 15.3597C25.0886 14.4692 26.5497 13.998 28.045 14.0162H29.7968V17.5502H28.045C27.1963 17.5277 26.3661 17.8038 25.6959 18.3315C24.456 19.206 22.9812 19.6748 21.4701 19.675C19.9589 19.6748 18.4841 19.206 17.2442 18.3315C16.5752 17.8022 15.7447 17.5259 14.896 17.5502C14.0472 17.5294 13.2173 17.8053 12.546 18.3315C11.3083 19.206 9.83522 19.6749 8.32581 19.675C6.81519 19.677 5.34039 19.2094 4.10086 18.3354L4.10467 18.3315ZM21.3995 13.542C21.2863 13.4797 21.1773 13.4099 21.0731 13.3333C19.2481 12.0915 17.0989 11.4282 14.8999 11.4279C12.7011 11.4284 10.5523 12.0916 8.72749 13.3333C8.62315 13.4097 8.51418 13.4795 8.40119 13.542H8.24949C8.13661 13.4793 8.02763 13.4096 7.92316 13.3333C6.11407 12.0616 3.95697 11.3953 1.75464 11.4279H0.449363C1.25223 8.16315 3.11093 5.26403 5.72958 3.19218C8.348 1.12008 11.5762 -0.00526023 14.8999 -0.00463841C18.2237 -0.00503009 21.4522 1.12027 24.0711 3.19218C26.6894 5.26413 28.5478 8.16325 29.3503 11.4279H28.045C25.843 11.3954 23.6863 12.0617 21.8775 13.3333C21.7733 13.4099 21.6643 13.4797 21.5512 13.542H21.3995ZM75.4917 10.9883C75.3614 10.8639 75.2578 10.7137 75.1873 10.547C75.1162 10.3806 75.0795 10.2011 75.0795 10.0197C75.0795 9.8383 75.1162 9.65881 75.1873 9.49232C75.2579 9.32568 75.3615 9.17543 75.4917 9.05091C75.7822 8.80213 76.1502 8.66528 76.5307 8.66456C76.9109 8.66542 77.2786 8.80228 77.5688 9.05091C77.6991 9.17562 77.8029 9.32581 77.8741 9.49232C77.9453 9.6588 77.982 9.83829 77.982 10.0197C77.982 10.2011 77.9453 10.3806 77.8741 10.547C77.803 10.7136 77.6991 10.8637 77.5688 10.9883C77.2816 11.2432 76.9127 11.3836 76.5307 11.3834C76.1477 11.3855 75.777 11.2465 75.4879 10.9922L75.4917 10.9883Z" fill="#394149"/>
</g>
<defs>
<clipPath id="clip0">
<rect width="128" height="26" fill="white"/>
</clipPath>
</defs>
</svg>
