<svg width="128" height="30" viewBox="0 0 128 30" fill="none" xmlns="http://www.w3.org/2000/svg">
<g clip-path="url(#clip0)">
<path d="M4.54056 30V22.8733L2.52301e-07 19.9483V4.9571C-0.000218786 4.30616 0.142185 3.66154 0.419063 3.06008C0.695941 2.45862 1.10187 1.9121 1.61368 1.45171C2.12585 0.991189 2.73396 0.626023 3.40321 0.376929C4.07247 0.127834 4.78977 -0.000240458 5.5141 6.15681e-05C6.23813 -3.03964e-05 6.95508 0.128133 7.62401 0.377221C8.29294 0.62631 8.90074 0.991379 9.4127 1.45171C9.92467 1.91203 10.3308 2.45852 10.6078 3.05998C10.8848 3.66145 11.0274 4.3061 11.0273 4.9571V19.9483L6.48585 22.8733V30H4.54056ZM6.48675 18.1169V20.7317L9.08108 19.053V15.7811L6.48675 18.1169ZM1.94622 19.0642L4.54056 20.7222V18.1161L1.94622 15.7826V19.0642ZM6.48675 13.4868V15.6739L9.08108 13.3405V11.1541L6.48675 13.4868ZM1.98621 13.3405L4.58144 15.6739V13.4868L1.98621 11.1541V13.3405ZM1.94622 8.60243L5.5141 11.88L9.08019 8.672V6.41207L5.5141 9.61925L1.94622 6.41207V8.60243ZM3.33405 2.39427C2.71101 2.83078 2.26567 3.43997 2.06712 4.12735L5.5132 7.21782L8.95839 4.12735C8.75224 3.44696 8.30378 2.84604 7.68167 2.41662C7.05947 1.9869 6.29776 1.75246 5.5132 1.74915V1.71314C4.72324 1.71824 3.95721 1.9577 3.33405 2.39427ZM60.4788 21.6982V19.8756H68.5872V21.6982H60.4788ZM55.0457 21.6614V20.3584C53.738 21.1811 52.1811 21.6232 50.5851 21.6247C49.2246 21.6332 47.8835 21.3334 46.6856 20.7533C45.4875 20.1728 44.4712 19.3305 43.7303 18.304C42.9895 17.2779 42.5477 16.1008 42.4456 14.8809C42.3432 13.6607 42.5844 12.437 43.1471 11.3228C43.7086 10.2085 44.5733 9.23933 45.6614 8.50484C46.7495 7.77025 48.0257 7.29356 49.3724 7.11867C50.7191 6.9436 52.0932 7.07616 53.3679 7.50403C54.6426 7.9319 55.777 8.64151 56.6664 9.56733L55.1772 10.7616C54.5001 10.081 53.6443 9.56385 52.6878 9.25711C51.7319 8.95049 50.7059 8.86362 49.7032 9.00447C48.7005 9.14562 47.753 9.51005 46.947 10.0645C46.141 10.6192 45.5022 11.3463 45.0888 12.1797C44.6754 13.0132 44.5006 13.9264 44.5803 14.8362C44.6604 15.7457 44.992 16.6228 45.5449 17.3879C46.0984 18.1529 46.8561 18.7812 47.749 19.2153C48.6415 19.6495 49.6406 19.8762 50.6554 19.8748C51.4981 19.8763 52.3312 19.7141 53.0977 19.3991C53.8635 19.0844 54.5446 18.6246 55.0945 18.0513H49.6214V16.2288H57.0896L57.0692 21.6599L55.0457 21.6614ZM31.1294 21.6614V19.8389H39.2387V21.6614H31.1294ZM77.6114 21.6526V7.13468H79.6394C79.7437 7.12529 79.8489 7.12529 79.9532 7.13468C80.8022 7.0521 81.661 7.13112 82.4738 7.36653C83.2866 7.60203 84.0351 7.98884 84.6707 8.50172C85.3061 9.01353 85.8145 9.63997 86.1626 10.3403C86.511 11.0413 86.6909 11.8004 86.6907 12.5682C86.691 13.336 86.511 14.0952 86.1626 14.7961C85.8144 15.4964 85.3061 16.1229 84.6707 16.6348C84.0349 17.1472 83.2864 17.5337 82.4738 17.7692C81.661 18.0046 80.8022 18.0836 79.9532 18.001H79.6394V21.6463L77.6114 21.6526ZM79.6394 16.1664H79.9532C80.5258 16.235 81.1082 16.1928 81.6611 16.0425C82.2141 15.8922 82.7252 15.6376 83.1601 15.2958C83.5945 14.9537 83.9426 14.532 84.1808 14.0591C84.4195 13.586 84.5432 13.0726 84.5435 12.5531C84.5433 12.0336 84.4196 11.5201 84.1808 11.047C83.9426 10.574 83.5945 10.1524 83.1601 9.81031C82.7255 9.46798 82.2144 9.21341 81.6611 9.0637C81.1082 8.91317 80.5259 8.87065 79.9532 8.93899C79.8466 8.9495 79.7414 8.96981 79.6394 8.99969V16.1664ZM20.7618 21.6439V7.13555H22.7889V19.8212H28.8702V21.6446L20.7618 21.6439ZM114.607 21.6255V7.13555L121.296 15.0552L127.986 7.13555L128.005 21.5983H125.978V12.5762L121.306 18.045L116.634 12.5762V21.6255H114.607ZM72.7775 21.6255V7.13555H74.8054V21.6255H72.7775ZM90.5591 21.4568C89.4487 21.2048 88.4419 20.6719 87.658 19.9211L89.2077 18.8459C89.5687 19.1935 90.0095 19.4663 90.4995 19.6454C90.9893 19.8255 91.517 19.9074 92.0456 19.8852C93.022 19.9318 93.9806 19.637 94.7209 19.0626C95.4615 18.4889 95.9269 17.6801 96.0198 16.8051V16.6772C96.0198 14.2446 93.3641 13.7993 91.0632 13.597C88.9347 13.4148 87.4037 12.2205 87.4037 10.4994V10.4259C87.4787 9.52924 87.9338 8.69277 88.6751 8.08924C89.4163 7.48553 90.387 7.16073 91.3868 7.18191C91.9168 7.16765 92.4441 7.25365 92.9347 7.43445C93.4149 7.61086 93.8497 7.87399 94.2123 8.20751L92.7462 9.24677C92.4869 9.00378 92.156 8.83214 91.7922 8.75193C91.4285 8.67211 91.047 8.68705 90.6924 8.79506C90.3383 8.90384 90.0257 9.10061 89.7909 9.3626C89.5571 9.62509 89.4112 9.94207 89.3704 10.2764V10.4227C89.3704 11.2221 89.9883 11.7624 91.1948 11.8352C95.8366 12.091 97.9651 14.0496 97.9651 16.638V16.8019C97.8446 17.8255 97.4 18.7966 96.6839 19.5998C95.9688 20.4033 95.0123 21.0054 93.9278 21.3345C93.3132 21.5202 92.6691 21.6149 92.0207 21.6151C91.526 21.617 91.033 21.5639 90.5528 21.4568H90.5591ZM99.4356 14.3077V7.01719H101.463V14.3077C101.382 17.3694 103.379 19.8236 105.892 19.8236L105.903 19.7781C108.427 19.7781 110.424 17.3271 110.424 14.3102V7.01962H112.451V14.3102C112.451 18.32 109.531 21.5552 105.944 21.5552C102.356 21.5552 99.4294 18.3168 99.4294 14.307L99.4356 14.3077ZM62.2116 17.6924C61.1004 17.2782 60.1504 16.5775 59.4813 15.6787C58.814 14.7792 58.458 13.7222 58.4579 12.641C58.4525 11.9184 58.6063 11.2019 58.9105 10.533C59.2155 9.86448 59.6645 9.25669 60.2316 8.7447C60.7991 8.23311 61.4736 7.82746 62.2161 7.55116C62.9594 7.27574 63.7558 7.13507 64.5597 7.13712L64.5392 7.1739C65.742 7.17403 66.9177 7.49474 67.9178 8.09558C68.9177 8.69657 69.6971 9.55066 70.1573 10.5498C70.6174 11.549 70.7377 12.6483 70.5032 13.709C70.2683 14.769 69.6891 15.7427 68.8388 16.5069C67.9891 17.2715 66.9061 17.7924 65.727 18.0034C65.3362 18.0731 64.9386 18.1082 64.5401 18.1081C63.739 18.109 62.9455 17.9675 62.2054 17.6916L62.2116 17.6924ZM64.5384 16.2855C65.3405 16.2856 66.1245 16.0717 66.7913 15.6708C67.4578 15.2697 67.9774 14.7003 68.2849 14.0343C68.5913 13.3683 68.6712 12.6356 68.5143 11.9288C68.3587 11.2215 67.9728 10.5717 67.4056 10.0621C66.8386 9.55183 66.1157 9.20465 65.3287 9.06448C64.5428 8.92368 63.7281 8.99577 62.9878 9.27156C62.2469 9.54737 61.6136 10.0144 61.1678 10.6137C60.7229 11.2133 60.4853 11.9178 60.485 12.6386C60.5006 13.5992 60.9374 14.5154 61.7004 15.1879C62.4641 15.8593 63.4916 16.2327 64.5597 16.2271L64.5384 16.2855ZM32.8586 17.6556C31.7474 17.2418 30.7976 16.5411 30.1292 15.642C29.4609 14.7428 29.1041 13.6857 29.1041 12.6042C29.1041 11.886 29.2615 11.1748 29.5673 10.5114C29.873 9.84797 30.321 9.24522 30.8858 8.73748C31.4505 8.22995 32.1209 7.82744 32.8586 7.55282C33.5963 7.27798 34.3869 7.13646 35.1854 7.13633C36.3881 7.13636 37.5639 7.45709 38.5639 8.05801C39.5643 8.65877 40.344 9.51291 40.8044 10.5122C41.2647 11.5114 41.3853 12.6106 41.1511 13.6714C40.916 14.7314 40.3369 15.7051 39.4867 16.4693C38.6368 17.2337 37.5539 17.7545 36.375 17.9658C35.9841 18.036 35.5866 18.0713 35.188 18.0713C34.3866 18.0722 33.5928 17.9307 32.8524 17.6548L32.8586 17.6556ZM33.6339 9.23555C32.8933 9.51175 32.2603 9.97903 31.8149 10.5785C31.3688 11.1777 31.1306 11.8824 31.1303 12.6034C31.1362 13.567 31.5661 14.4893 32.3261 15.1687C33.0857 15.8484 34.1137 16.2301 35.1854 16.2303V16.2479C35.9874 16.2477 36.7714 16.0337 37.4383 15.6331C38.1048 15.2325 38.6241 14.663 38.9302 13.9967C39.2375 13.331 39.318 12.5981 39.1613 11.8912C39.005 11.184 38.6189 10.5343 38.0518 10.0245C37.4847 9.51471 36.7622 9.16759 35.9758 9.02691C35.7155 8.98056 35.4507 8.95723 35.1854 8.95734C34.6512 8.95687 34.1222 9.05117 33.6286 9.23477L33.6339 9.23555ZM94.2123 8.20751L94.2452 8.18428L94.2354 8.22985L94.2123 8.20751Z" fill="#394149"/>
</g>
<defs>
<clipPath id="clip0">
<rect width="128" height="30" fill="white"/>
</clipPath>
</defs>
</svg>
