<svg width="20" height="20" viewBox="0 0 20 20" fill="none" xmlns="http://www.w3.org/2000/svg">
<path d="M3.79097 2.25701L11.3639 10L9.98097 11.414L6.61066 7.96801C6.17771 8.71854 5.99631 9.59309 6.09402 10.4587C6.19173 11.3243 6.56321 12.1336 7.15198 12.7636C7.74076 13.3935 8.51462 13.8097 9.3559 13.9488C10.1972 14.0879 11.0599 13.9423 11.8128 13.5341C12.5658 13.126 13.1678 12.4776 13.5273 11.6876C13.8869 10.8976 13.9843 10.0092 13.8047 9.15737C13.6252 8.30558 13.1785 7.53702 12.5326 6.96856C11.8867 6.4001 11.077 6.06282 10.2265 6.00801L8.4611 4.20301C9.79538 3.83717 11.2131 3.96434 12.4647 4.56214C13.7163 5.15994 14.7215 6.19004 15.3034 7.47109C15.8852 8.75213 16.0064 10.202 15.6456 11.5654C15.2848 12.9288 14.4651 14.1184 13.3308 14.9246C12.1966 15.7309 10.8205 16.1022 9.44488 15.9731C8.06923 15.8441 6.78222 15.223 5.81041 14.2191C4.83861 13.2153 4.24433 11.8931 4.13219 10.4853C4.02006 9.0775 4.39726 7.6744 5.19739 6.52301L3.79978 5.09401C2.63345 6.63136 2.05505 8.55061 2.17284 10.4925C2.29063 12.4344 3.09654 14.2659 4.43971 15.6441C5.78289 17.0223 7.57126 17.8528 9.4701 17.9802C11.3689 18.1075 13.2481 17.5229 14.7558 16.3359C16.2635 15.1488 17.2965 13.4407 17.6613 11.5311C18.0261 9.62156 17.6978 7.64151 16.7379 5.96158C15.7779 4.28165 14.2521 3.01699 12.446 2.40432C10.6399 1.79164 8.6773 1.87294 6.92559 2.63301L5.45657 1.13201C6.85294 0.38603 8.40549 -0.00241366 9.98097 1.12842e-05C15.3827 1.12842e-05 19.7614 4.47701 19.7614 10C19.7614 15.523 15.3827 20 9.98097 20C4.57927 20 0.200597 15.523 0.200597 10C0.199123 8.51776 0.520584 7.05379 1.14163 5.71445C1.76267 4.37511 2.6677 3.19403 3.79097 2.25701Z" fill="#353AE0"/>
</svg>
