<svg width="24" height="24" viewBox="0 0 24 24" fill="none" xmlns="http://www.w3.org/2000/svg">
<path d="M12 13L18 22H6.00002L12 13ZM12 16.6L9.74002 20H14.26L12 16.6ZM10.94 10.56C10.7926 10.4226 10.6744 10.257 10.5925 10.073C10.5105 9.88904 10.4664 9.69041 10.4628 9.489C10.4593 9.2876 10.4963 9.08754 10.5718 8.90076C10.6472 8.71399 10.7595 8.54432 10.9019 8.40188C11.0444 8.25944 11.214 8.14716 11.4008 8.07171C11.5876 7.99627 11.7877 7.95922 11.9891 7.96278C12.1905 7.96633 12.3891 8.01041 12.5731 8.0924C12.7571 8.17438 12.9227 8.29258 13.06 8.43996C13.325 8.72431 13.4692 9.1004 13.4624 9.489C13.4555 9.87761 13.2981 10.2484 13.0233 10.5232C12.7484 10.798 12.3777 10.9555 11.9891 10.9623C11.6005 10.9692 11.2244 10.8249 10.94 10.56ZM5.28102 2.78296L6.69602 4.19796C5.28968 5.60446 4.49962 7.51198 4.49962 9.50096C4.49962 11.4899 5.28968 13.3975 6.69602 14.804L5.28102 16.219C4.39872 15.3368 3.69883 14.2895 3.22132 13.1368C2.74382 11.9841 2.49805 10.7486 2.49805 9.50096C2.49805 8.25329 2.74382 7.01783 3.22132 5.86515C3.69883 4.71247 4.39872 3.66513 5.28102 2.78296ZM18.717 2.78296C19.5993 3.66513 20.2992 4.71247 20.7767 5.86515C21.2542 7.01783 21.5 8.25329 21.5 9.50096C21.5 10.7486 21.2542 11.9841 20.7767 13.1368C20.2992 14.2895 19.5993 15.3368 18.717 16.219L17.302 14.804C18.7084 13.3975 19.4984 11.4899 19.4984 9.50096C19.4984 7.51198 18.7084 5.60446 17.302 4.19796L18.717 2.78296ZM8.11002 5.61096L9.52402 7.02496C9.19898 7.34997 8.94114 7.73582 8.76522 8.16048C8.58931 8.58515 8.49877 9.0403 8.49877 9.49996C8.49877 9.95962 8.58931 10.4148 8.76522 10.8394C8.94114 11.2641 9.19898 11.65 9.52402 11.975L8.11002 13.389C7.07862 12.3575 6.49919 10.9586 6.49919 9.49996C6.49919 8.04131 7.07862 6.6424 8.11002 5.61096ZM15.888 5.61096C16.9194 6.6424 17.4988 8.04131 17.4988 9.49996C17.4988 10.9586 16.9194 12.3575 15.888 13.389L14.474 11.975C14.7991 11.65 15.0569 11.2641 15.2328 10.8394C15.4087 10.4148 15.4993 9.95962 15.4993 9.49996C15.4993 9.0403 15.4087 8.58515 15.2328 8.16048C15.0569 7.73582 14.7991 7.34997 14.474 7.02496L15.888 5.61096Z" fill="#76A728"/>
</svg>
